<svg xmlns="http://www.w3.org/2000/svg" data-name="Layer 1" viewBox="0 0 100 125" x="0px" y="0px"><defs><style>.cls-1{fill-rule:evenodd;}</style></defs><path class="cls-1" d="M53.826,29.591a.269.269,0,0,0-.19.457l3.632,3.632h0a.274.274,0,0,0,.379,0h0l6.641-6.642h0a.276.276,0,0,0,0-.38h0a.273.273,0,0,0-.38,0L58.367,32.2a1.286,1.286,0,0,1-1.818,0l-2.533-2.533a.268.268,0,0,0-.19-.077Zm5.549-13.746,10.232,3.461v0a1.281,1.281,0,0,1,.87,1.213,77.828,77.828,0,0,1-.4,8.687A23.674,23.674,0,0,1,67.8,37.443,13.874,13.874,0,0,1,64.2,41.8a18.1,18.1,0,0,1-4.772,2.7h0a1.281,1.281,0,0,1-.934,0A18.063,18.063,0,0,1,53.724,41.8a13.847,13.847,0,0,1-3.6-4.358,23.674,23.674,0,0,1-2.276-8.235,77.094,77.094,0,0,1-.4-8.6,1.283,1.283,0,0,1,.868-1.306l10.233-3.461h0a1.277,1.277,0,0,1,.824,0Zm8.534,5.6a68.844,68.844,0,0,1-.383,7.466,21.241,21.241,0,0,1-1.994,7.34A11.3,11.3,0,0,1,62.6,39.8a15.1,15.1,0,0,1-3.632,2.113A15.076,15.076,0,0,1,55.331,39.8a11.3,11.3,0,0,1-2.937-3.555,21.247,21.247,0,0,1-1.995-7.34,69.1,69.1,0,0,1-.383-7.466l8.947-3.026,8.946,3.026Zm4.028-2.476c-.075,11.754-.147,22.773-12.974,27.256-12.828-4.483-12.9-15.5-12.974-27.256l0-.406L58.963,14.17l12.976,4.389,0,.406Zm2.57-1.23c0,.431-.006.837-.009,1.24-.081,12.827-.157,24.844-15.133,29.816a1.275,1.275,0,0,1-.837-.012c-14.943-4.978-15.019-16.986-15.1-29.8,0-.43-.005-.863-.009-1.325a1.284,1.284,0,0,1,.87-1.224v0L58.551,11.6a1.271,1.271,0,0,1,.824,0h0l14.263,4.824a1.284,1.284,0,0,1,.869,1.311ZM57.81,67.284a1.286,1.286,0,1,1,0-2.571H83.154a1.286,1.286,0,0,1,0,2.571Zm0-11.863a1.286,1.286,0,0,1,0-2.572H83.154a1.286,1.286,0,0,1,0,2.572Zm23.832-46.3v8.2h8.2l-8.2-8.2ZM31.754,59.563,30.668,57.05l-1.063,2.457a1.281,1.281,0,0,1-1.079.825l-2.72.256,2.05,1.806,0,0a1.282,1.282,0,0,1,.4,1.238l-.6,2.672L30,64.925a1.283,1.283,0,0,1,1.325-.012l2.355,1.394L33.1,63.74a1.285,1.285,0,0,1,.378-1.346l2.05-1.806-2.72-.256h0a1.281,1.281,0,0,1-1.055-.768Zm.089-6.246,1.96,4.534,4.922.464a1.281,1.281,0,0,1,.726,2.237l0,0-3.709,3.268,1.079,4.822a1.28,1.28,0,0,1-1.9,1.378v0l-4.252-2.517-4.253,2.517a1.283,1.283,0,0,1-1.885-1.464l1.061-4.739-3.709-3.268a1.285,1.285,0,0,1,.819-2.249l4.831-.455,1.96-4.534a1.28,1.28,0,0,1,2.351,0ZM52.657,82.559l2.472,4.282H84.805V82.559ZM35.426,45.205l-4.038-2.518a1.2,1.2,0,0,0-1.365.024l-3.139,2.133a3.775,3.775,0,0,1-.893.453,3.73,3.73,0,0,1-.978.2l-4.748.336a1.209,1.209,0,0,0-1.087.819l-1.285,3.57a3.784,3.784,0,0,1-.452.894,3.826,3.826,0,0,1-.682.734l-3.643,3.062a1.2,1.2,0,0,0-.395,1.307l1.059,3.644a3.8,3.8,0,0,1,.154.979v.009a3.743,3.743,0,0,1-.113.991L12.673,66.46a1.193,1.193,0,0,0,.443,1.289l3,2.325a3.684,3.684,0,0,1,1.2,1.582L19.1,76.067a1.214,1.214,0,0,0,1.117.781l3.792.119a3.752,3.752,0,0,1,1.9.573l4.038,2.518a1.2,1.2,0,0,0,1.365-.024L34.451,77.9a3.757,3.757,0,0,1,1.871-.652l4.748-.336a1.209,1.209,0,0,0,1.087-.819l1.285-3.57a3.758,3.758,0,0,1,.452-.893,3.8,3.8,0,0,1,.682-.735l3.643-3.062a1.2,1.2,0,0,0,.395-1.307l-1.059-3.644A3.8,3.8,0,0,1,47.4,61.9a3.743,3.743,0,0,1,.113-.991l1.148-4.619a1.265,1.265,0,0,0-.021-.719,1.246,1.246,0,0,0-.422-.57l-3-2.325a3.684,3.684,0,0,1-1.2-1.582l-1.786-4.411a1.214,1.214,0,0,0-1.106-.781h-.011l-3.792-.119h0a3.752,3.752,0,0,1-1.9-.573ZM26.961,41.7l1.625-1.1a3.758,3.758,0,0,1,2.657-.633v-25.8H26.961V41.7ZM23.614,79.518,16.008,92.691l-1.287-4.805a1.284,1.284,0,0,0-1.572-.909L8.342,88.265l7.6-13.162.781,1.928a3.754,3.754,0,0,0,3.416,2.378l3.476.109Zm11.673.91-2.538,1.725a3.769,3.769,0,0,1-4.158.085l-1.63-1.017v5.62H38.99l-3.7-6.413Zm10.01-5.5L53,88.266l-4.81-1.289a1.284,1.284,0,0,0-1.572.909L45.326,92.7,37.832,79.716l3.418-.242a3.754,3.754,0,0,0,3.317-2.516l.73-2.027ZM33.814,41.175V7.305H79.071v11.3a1.286,1.286,0,0,0,1.286,1.286h11.3v60.1H51.173l-4.39-7.6,3.084-2.592a3.762,3.762,0,0,0,1.208-3.979L50.016,62.17a1.253,1.253,0,0,1-.054-.325,1.286,1.286,0,0,1,.043-.328L51.153,56.9a3.778,3.778,0,0,0-1.367-3.93l-3-2.326a1.166,1.166,0,0,1-.388-.517l-1.786-4.411a3.752,3.752,0,0,0-3.394-2.377H41.2L37.4,43.217H37.4a1.243,1.243,0,0,1-.32-.048,1.3,1.3,0,0,1-.3-.143l-2.968-1.851Zm-11.344,12a11.594,11.594,0,0,1,16.4,0h0a11.593,11.593,0,1,1-16.4,0Zm-1.818-1.818a14.164,14.164,0,1,0,20.031,0h0a14.165,14.165,0,0,0-20.031,0ZM51.818,27.85a2.844,2.844,0,0,1,4.016,0l1.624,1.624,4.633-4.634a2.844,2.844,0,0,1,4.016,0h0a2.844,2.844,0,0,1,0,4.016h0L59.466,35.5h0a2.843,2.843,0,0,1-4.015,0h0l-3.632-3.632a2.844,2.844,0,0,1,0-4.016Z"/><text x="0" y="115" fill="#000000" font-size="5px" font-weight="bold" font-family="'Helvetica Neue', Helvetica, Arial-Unicode, Arial, Sans-serif">Created by kholifah</text><text x="0" y="120" fill="#000000" font-size="5px" font-weight="bold" font-family="'Helvetica Neue', Helvetica, Arial-Unicode, Arial, Sans-serif">from the Noun Project</text></svg>