<svg xmlns="http://www.w3.org/2000/svg" version="1.1" viewBox="-5.0 -10.0 110.0 135.0">
 <g>
  <path d="m90.562 62.234c-1.6562-1.7656-4.2031-2.3281-6.4688-1.4531-2.6094 1-5.5781 2.7344-8.7969 5.1562-1.3906 1.0469-3.1562 1.8125-5.0938 2.375 0.35938-1.8594-0.046875-4.3281-1.8281-5.6875-0.6875-0.51562-1.5-0.8125-2.4531-0.89062-4.8281-0.42188-11.797-2.3906-19.641-5.5312-10.281-4.1094-22.078 5.5625-22.578 5.9844-0.09375 0.078125-0.15625 0.1875-0.21875 0.28125l-0.85938-1.4844c-0.4375-0.75-1.3906-1-2.1406-0.57812l-11.891 6.875c-0.35938 0.20312-0.625 0.54688-0.73438 0.95312s-0.046875 0.82812 0.15625 1.1875l12.438 21.531c0.29688 0.5 0.8125 0.78125 1.3594 0.78125 0.26562 0 0.53125-0.0625 0.78125-0.20312l11.891-6.8594c0.35938-0.20312 0.625-0.54688 0.73438-0.95312s0.046875-0.82812-0.15625-1.1875l-0.96875-1.6875c3.8281-1.5312 8.4688-0.76562 14.172 0.1875 4.0312 0.67188 8.4375 1.4219 13.266 1.4219 1.7344 0 3.5156-0.09375 5.3594-0.32812 10.234-1.2656 18.359-6.9062 23.391-11.438 1.2188-1.125 1.9219-2.7031 1.9219-4.3594 0-1.5156-0.57812-2.9688-1.625-4.0625zm-68.188 25.781-10.875-18.828 9.1875-5.3125 9.8125 17s0 0.03125 0.015625 0.046875l0.03125 0.03125 1 1.7344-9.1875 5.2969zm65.797-19.656c-3.8281 3.4375-11.734 9.4062-21.672 10.641-6.5 0.8125-12.469-0.1875-17.719-1.0781-6.1562-1.0312-11.531-1.9219-16.266 0.15625l-7.6094-13.188c0.29688-0.03125 0.57812-0.125 0.8125-0.32812 0.10938-0.09375 10.859-8.8906 19.406-5.4688 8.1094 3.25 15.406 5.2812 20.531 5.7344 0.14062 0 0.53125 0.046875 0.84375 0.28125 0.59375 0.45312 0.875 1.6406 0.64062 2.6875 0 0.03125 0 0.046875-0.015625 0.078125-0.15625 0.57812-0.60938 1.0781-1.2188 1.3594-6.9375 1.0156-14.203 0.23438-14.297 0.23438-0.84375-0.09375-1.625 0.51562-1.7188 1.375s0.51562 1.625 1.375 1.7188c0.39062 0.046875 5.4375 0.57812 11.297 0.15625h0.03125c5.125-0.375 10.844-1.4688 14.594-4.2812 3.7188-2.7969 6.4219-4.125 8.0469-4.7344 1.0781-0.42188 2.2812-0.15625 3.0781 0.6875 0.5 0.51562 0.76562 1.2031 0.76562 1.9219 0 0.78125-0.32812 1.5156-0.89062 2.0469z"/>
  <path d="m40.797 28.672-1.6406 9.5469c-0.09375 0.59375 0.14062 1.1719 0.625 1.5312 0.48438 0.34375 1.125 0.39062 1.6406 0.125l8.5781-4.5156 8.5781 4.5156c0.23438 0.125 0.48438 0.17188 0.73438 0.17188 0.32812 0 0.64062-0.09375 0.92188-0.29688 0.48438-0.34375 0.71875-0.9375 0.625-1.5312l-1.6406-9.5469 6.9375-6.7656c0.42188-0.42188 0.57812-1.0312 0.39062-1.6094-0.1875-0.5625-0.67188-0.98438-1.2656-1.0625l-9.5938-1.3906-4.2969-8.6875c-0.53125-1.0625-2.2812-1.0625-2.7969 0l-4.2969 8.6875-9.5938 1.3906c-0.59375 0.078125-1.0781 0.5-1.2656 1.0625s-0.03125 1.1875 0.39062 1.6094l6.9375 6.7656zm4.7812-7.8438c0.51562-0.078125 0.95312-0.39062 1.1719-0.85938l3.25-6.5938 3.25 6.5938c0.23438 0.46875 0.67188 0.78125 1.1719 0.85938l7.2656 1.0625-5.2656 5.125c-0.375 0.35938-0.53125 0.875-0.45312 1.3906l1.2344 7.2344-6.5-3.4219c-0.23438-0.125-0.48438-0.17188-0.73438-0.17188s-0.5 0.0625-0.73438 0.17188l-6.5 3.4219 1.2344-7.2344c0.09375-0.5-0.078125-1.0312-0.45312-1.3906l-5.2656-5.125 7.2656-1.0625z"/>
  <path d="m13.828 41.625-1.2031 7.0312c-0.09375 0.59375 0.14062 1.1719 0.625 1.5312 0.26562 0.20312 0.59375 0.29688 0.92188 0.29688 0.25 0 0.5-0.0625 0.73438-0.17188l6.3125-3.3125 6.3125 3.3125c0.53125 0.28125 1.1719 0.23438 1.6406-0.125 0.48438-0.34375 0.71875-0.9375 0.625-1.5312l-1.2031-7.0312 5.1094-4.9844c0.42188-0.42188 0.57812-1.0312 0.39062-1.6094-0.1875-0.5625-0.67188-0.98438-1.2656-1.0625l-7.0625-1.0312-3.1562-6.3906c-0.53125-1.0625-2.2812-1.0625-2.7969 0l-3.1562 6.3906-7.0625 1.0312c-0.59375 0.078125-1.0781 0.5-1.2656 1.0625s-0.03125 1.1875 0.39062 1.6094zm4.0781-5.7031c0.51562-0.078125 0.95312-0.39062 1.1719-0.85938l2.125-4.2969 2.125 4.2969c0.23438 0.46875 0.67188 0.78125 1.1719 0.85938l4.7344 0.6875-3.4219 3.3438c-0.375 0.35938-0.53125 0.875-0.45312 1.3906l0.8125 4.7188-4.2344-2.2344c-0.45312-0.23438-1-0.23438-1.4531 0l-4.2344 2.2344 0.8125-4.7188c0.09375-0.5-0.078125-1.0312-0.45312-1.3906l-3.4219-3.3438 4.7344-0.6875z"/>
  <path d="m65.922 35.031c-0.1875 0.5625-0.03125 1.1875 0.39062 1.6094l5.1094 4.9844-1.2031 7.0312c-0.09375 0.59375 0.14062 1.1719 0.625 1.5312 0.48438 0.34375 1.125 0.39062 1.6406 0.125l6.3125-3.3125 6.3125 3.3125c0.23438 0.125 0.48438 0.17188 0.73438 0.17188 0.32812 0 0.64062-0.09375 0.92188-0.29688 0.48438-0.34375 0.71875-0.9375 0.625-1.5312l-1.2031-7.0312 5.1094-4.9844c0.42188-0.42188 0.57812-1.0312 0.39062-1.6094-0.1875-0.5625-0.67188-0.98438-1.2656-1.0625l-7.0625-1.0312-3.1562-6.3906c-0.53125-1.0625-2.2812-1.0625-2.7969 0l-3.1562 6.3906-7.0625 1.0312c-0.59375 0.078125-1.0781 0.5-1.2656 1.0625zm9.5781 0.89062c0.51562-0.078125 0.95312-0.39062 1.1719-0.85938l2.125-4.2969 2.125 4.2969c0.23438 0.46875 0.67188 0.78125 1.1719 0.85938l4.7344 0.6875-3.4219 3.3438c-0.375 0.35938-0.53125 0.875-0.45312 1.3906l0.8125 4.7188-4.2344-2.2344c-0.23438-0.125-0.48438-0.17188-0.73438-0.17188s-0.5 0.0625-0.73438 0.17188l-4.2344 2.2344 0.8125-4.7188c0.09375-0.5-0.078125-1.0312-0.45312-1.3906l-3.4219-3.3438z"/>
 </g>
<text x="0.0" y="117.5" font-size="5.0" font-weight="bold" font-family="Arbeit Regular, Helvetica, Arial-Unicode, Arial, Sans-serif" fill="#000000">Created by Yosua Bungaran</text><text x="0.0" y="122.5" font-size="5.0" font-weight="bold" font-family="Arbeit Regular, Helvetica, Arial-Unicode, Arial, Sans-serif" fill="#000000">from Noun Project</text></svg>