<svg xmlns="http://www.w3.org/2000/svg" data-name="Layer 1" viewBox="0 0 100 125" x="0px" y="0px"><title>a</title><path d="M40.4,76.3a8.471,8.471,0,0,1,1.812.791L34.915,95,31.867,84.447a1.3,1.3,0,0,0-1.608-.885,1.255,1.255,0,0,0-.279.117h0L20.429,89.1,27.4,71.981a8.237,8.237,0,0,0,2.891,3.181c1.858,1.089,4.01,1.01,6.173.93A13.8,13.8,0,0,1,40.4,76.3Zm29.316-1.139c-1.858,1.088-4.01,1.009-6.173.93a13.807,13.807,0,0,0-3.933.209,8.427,8.427,0,0,0-1.812.792L65.084,95l3.049-10.553a1.3,1.3,0,0,1,1.607-.885,1.263,1.263,0,0,1,.28.117h0L79.571,89.1,72.6,71.981A8.242,8.242,0,0,1,69.711,75.162ZM86.447,41.448c0,1.575-1.015,3.189-2.015,4.78a15.985,15.985,0,0,0-2.082,4.143,15.563,15.563,0,0,0-.3,4.7c.066,1.788.131,3.566-.574,4.769s-2.282,2-3.857,2.8a14.882,14.882,0,0,0-3.9,2.517,14.9,14.9,0,0,0-2.517,3.9c-.8,1.575-1.606,3.155-2.8,3.857s-2.981.64-4.769.575a15.529,15.529,0,0,0-4.7.3,13.249,13.249,0,0,0-3.373,1.6,1.364,1.364,0,0,0-.137.085c-.211.13-.422.263-.633.4C53.19,76.88,51.575,77.9,50,77.9s-3.19-1.015-4.78-2.015c-.212-.133-.423-.266-.635-.4a1.413,1.413,0,0,0-.136-.084,13.249,13.249,0,0,0-3.373-1.6,15.559,15.559,0,0,0-4.7-.3c-1.787.065-3.566.13-4.769-.574s-2-2.282-2.8-3.858a14.905,14.905,0,0,0-2.518-3.9,14.894,14.894,0,0,0-3.9-2.518c-1.575-.8-3.155-1.605-3.857-2.8s-.639-2.982-.574-4.77a15.563,15.563,0,0,0-.3-4.7,15.963,15.963,0,0,0-2.082-4.142c-1-1.591-2.015-3.206-2.015-4.781s1.014-3.19,2.015-4.781a15.985,15.985,0,0,0,2.082-4.143,15.563,15.563,0,0,0,.3-4.705c-.066-1.788-.131-3.566.574-4.769s2.282-2,3.857-2.8a14.86,14.86,0,0,0,3.9-2.518,14.877,14.877,0,0,0,2.517-3.9c.8-1.576,1.606-3.156,2.8-3.857s2.981-.64,4.769-.575a15.527,15.527,0,0,0,4.7-.3,15.922,15.922,0,0,0,4.143-2.082C46.81,6.015,48.425,5,50,5s3.189,1.015,4.78,2.015A15.959,15.959,0,0,0,58.924,9.1a15.559,15.559,0,0,0,4.7.3c1.787-.065,3.565-.131,4.769.574s2,2.282,2.8,3.858a14.905,14.905,0,0,0,2.518,3.9,14.894,14.894,0,0,0,3.9,2.518c1.575.8,3.155,1.605,3.857,2.8s.639,2.982.574,4.769a15.567,15.567,0,0,0,.3,4.706,15.985,15.985,0,0,0,2.082,4.143C85.432,38.258,86.447,39.872,86.447,41.448Zm-13.11,0A23.336,23.336,0,1,0,66.5,57.95,23.266,23.266,0,0,0,73.337,41.448ZM64.9,34.929l-10.154-.65-3.754-9.453a1.3,1.3,0,0,0-2.412,0l-3.754,9.453-10.108.647a1.3,1.3,0,0,0-.794,2.3l7.829,6.491-2.52,9.858h0A1.3,1.3,0,0,0,41.182,55l8.6-5.445L58.3,54.947a1.3,1.3,0,0,0,2.033-1.369l-2.52-9.858,7.83-6.491h0a1.3,1.3,0,0,0-.747-2.3Z"/><text x="0" y="115" fill="#000000" font-size="5px" font-weight="bold" font-family="'Helvetica Neue', Helvetica, Arial-Unicode, Arial, Sans-serif">Created by Good Father</text><text x="0" y="120" fill="#000000" font-size="5px" font-weight="bold" font-family="'Helvetica Neue', Helvetica, Arial-Unicode, Arial, Sans-serif">from the Noun Project</text></svg>