<svg xmlns="http://www.w3.org/2000/svg" version="1.1" viewBox="-5.0 -10.0 110.0 135.0">
 <g>
  <path d="m85.781 18.75-0.085938-3.25-2.6328-0.21094c-13.164-1.0547-23.656-4.7422-31.184-10.961l-1.8945-1.5664-1.875 1.5859c-0.31641 0.26953-0.64453 0.53516-0.98438 0.79688-7.1523 5.5625-18.145 9.2578-30.16 10.141l-2.6523 0.19531-0.078125 2.9258c-1.0859 40.055-1.4922 55.039 34.207 77.492l1.5664 0.98437 1.5664-0.98828c35.656-22.477 35.262-37.363 34.207-77.145zm-35.781 71.172c-30.641-19.656-30.945-31.797-29.953-69.008 11.867-1.25 22.395-4.9609 29.965-10.582 7.7305 5.7031 17.777 9.25 29.938 10.566 0.98047 37.215 0.75781 49.285-29.949 69.023z"/>
  <path d="m45.422 56.43-9.5508-9.9062-4.2344 4.082 13.797 14.309 22.938-23.906-4.2461-4.0742z"/>
 </g>
<text x="0.0" y="117.5" font-size="5.0" font-weight="bold" font-family="Arbeit Regular, Helvetica, Arial-Unicode, Arial, Sans-serif" fill="#000000">Created by Mike Zuidgeest</text><text x="0.0" y="122.5" font-size="5.0" font-weight="bold" font-family="Arbeit Regular, Helvetica, Arial-Unicode, Arial, Sans-serif" fill="#000000">from Noun Project</text></svg>